<?xml version="1.0" standalone="no"?>
<!DOCTYPE svg PUBLIC "-//W3C//DTD SVG 20010904//EN"
 "http://www.w3.org/TR/2001/REC-SVG-20010904/DTD/svg10.dtd">
<svg version="1.0" xmlns="http://www.w3.org/2000/svg"
 width="867.000000pt" height="495.000000pt" viewBox="0 0 867.000000 495.000000"
 preserveAspectRatio="xMidYMid meet">

<g transform="translate(0.000000,495.000000) scale(0.100000,-0.100000)"
fill="#000000" stroke="none">
<path d="M563 4893 c-4 -10 -11 -22 -17 -26 -8 -6 -7 -10 2 -14 6 -2 12 -18
12 -34 0 -16 5 -29 10 -29 6 0 10 13 10 29 0 16 6 32 13 34 9 4 8 8 -3 17 -11
9 -12 13 -2 17 17 7 15 23 -3 23 -9 0 -19 -8 -22 -17z"/>
<path d="M160 4845 l0 -55 33 0 c39 0 67 25 67 61 0 35 -18 49 -62 49 l-38 0
0 -55z m65 0 c0 -20 -6 -31 -17 -33 -15 -3 -18 4 -18 33 0 29 3 36 18 33 11
-2 17 -13 17 -33z"/>
<path d="M360 4873 c-10 -12 -11 -18 -2 -21 7 -2 12 -17 12 -33 0 -22 5 -29
20 -29 11 0 20 5 20 10 0 6 -4 10 -10 10 -14 0 -12 38 2 42 9 3 8 9 -4 21 -20
20 -19 20 -38 0z"/>
<path d="M280 4860 c0 -5 10 -10 23 -11 14 0 17 -2 7 -6 -50 -19 -46 -53 6
-53 29 0 34 3 34 24 0 42 -11 56 -41 56 -16 0 -29 -4 -29 -10z m40 -40 c0 -5
-5 -10 -11 -10 -5 0 -7 5 -4 10 3 6 8 10 11 10 2 0 4 -4 4 -10z"/>
<path d="M420 4860 c0 -5 10 -10 23 -11 14 0 17 -2 7 -6 -50 -19 -46 -53 6
-53 29 0 34 3 34 24 0 42 -11 56 -41 56 -16 0 -29 -4 -29 -10z m40 -40 c0 -5
-5 -10 -11 -10 -5 0 -7 5 -4 10 3 6 8 10 11 10 2 0 4 -4 4 -10z"/>
<path d="M610 4830 c0 -29 4 -40 15 -40 10 0 15 10 15 30 0 17 5 30 10 30 6 0
10 5 10 10 0 6 -11 10 -25 10 -22 0 -25 -4 -25 -40z"/>
<path d="M684 4856 c-12 -31 0 -61 27 -64 31 -4 52 18 47 50 -2 18 -10 24 -36
26 -21 2 -34 -2 -38 -12z m51 -27 c0 -7 -8 -15 -17 -17 -18 -3 -25 18 -11 32
10 10 28 1 28 -15z"/>
<path d="M770 4830 c0 -29 4 -40 15 -40 10 0 15 10 15 30 0 17 5 30 10 30 6 0
10 -13 10 -30 0 -20 5 -30 15 -30 10 0 15 10 15 30 0 17 5 30 10 30 6 0 10
-13 10 -30 0 -20 5 -30 15 -30 16 0 21 45 7 66 -4 6 -33 12 -64 13 l-58 1 0
-40z"/>
<path d="M1172 4790 c-48 -20 -52 -54 -52 -405 0 -334 4 -377 41 -401 8 -5
139 -11 291 -14 l278 -5 -388 -566 -389 -566 -12 74 c-24 140 -75 254 -166
371 -53 68 -85 90 -85 58 0 -8 22 -41 50 -73 110 -129 171 -303 171 -488 0
-182 -56 -340 -171 -483 -52 -65 -60 -82 -36 -82 34 0 152 170 192 277 15 38
34 105 43 151 l16 82 450 -596 c248 -328 451 -600 453 -605 2 -4 -150 -10
-337 -11 l-339 -3 -26 -24 -26 -24 0 -364 0 -364 25 -24 24 -25 2684 0 2684 0
26 21 27 20 2 221 3 222 55 13 c257 64 505 194 697 365 108 96 188 189 275
318 60 89 75 105 94 102 26 -3 29 10 16 80 l-7 37 -53 -33 c-53 -33 -53 -33
-31 -48 l23 -15 -66 -99 c-187 -281 -432 -480 -749 -608 -56 -24 -231 -76
-251 -76 -5 0 -8 58 -8 128 0 125 -1 129 -26 153 l-26 24 -2317 3 -2318 2
-473 628 c-260 345 -473 632 -474 637 -1 6 181 276 404 602 l405 592 2378 1
c1788 0 2384 3 2400 12 45 23 46 33 47 252 l0 209 43 -7 c138 -22 397 -138
554 -249 108 -76 282 -247 355 -347 58 -80 121 -181 116 -185 -2 -1 -12 -7
-22 -12 -17 -9 -13 -14 35 -45 l54 -35 5 61 c3 34 4 62 3 64 -1 2 -10 -1 -21
-7 -18 -10 -24 -5 -52 45 -128 223 -371 456 -618 591 -99 55 -254 116 -364
144 l-88 21 0 133 0 133 -31 26 -31 26 -2671 -1 c-1603 0 -2681 -4 -2695 -9z
m5397 -36 c20 -26 21 -38 21 -365 0 -358 -2 -378 -47 -398 -28 -13 -4757 -16
-4751 -3 2 4 36 55 76 114 55 82 81 111 107 122 28 12 35 20 35 43 0 36 -16
53 -52 53 -31 0 -53 -30 -45 -61 3 -12 -25 -62 -82 -146 l-88 -128 -282 0
-283 0 -19 24 c-18 22 -19 44 -19 377 0 341 1 355 20 374 20 20 33 20 2704 20
l2685 0 20 -26z m-4661 -3297 c12 -18 22 -45 22 -60 0 -35 40 -63 69 -48 44
24 33 87 -18 97 -15 3 -33 14 -39 25 -12 19 26 19 2295 19 l2307 0 23 -22 23
-21 0 -354 0 -354 -25 -24 -24 -25 -2676 0 -2676 0 -24 25 -25 24 0 349 c0
338 1 350 21 376 l20 26 352 0 352 0 23 -33z"/>
<path d="M2256 4686 c-4 -18 -14 -25 -41 -28 -19 -2 -35 -1 -35 2 0 3 -6 14
-13 24 -11 15 -17 16 -42 5 -17 -7 -31 -14 -33 -15 -1 -1 3 -13 9 -28 17 -36
-12 -70 -54 -62 -23 5 -29 1 -37 -20 -14 -36 -13 -39 15 -52 34 -15 35 -66 3
-83 -13 -6 -24 -13 -26 -14 -5 -4 27 -65 34 -65 3 0 14 5 26 11 30 16 69 -23
62 -61 -5 -24 -2 -29 25 -38 29 -10 33 -9 41 12 9 24 72 46 78 28 1 -5 8 -17
15 -26 11 -15 17 -16 40 -5 29 13 32 21 18 47 -7 13 -3 25 14 45 20 23 28 25
49 17 22 -8 26 -6 35 22 14 40 15 37 -14 48 -20 8 -25 16 -25 44 0 26 5 36 20
41 23 7 25 17 9 48 -16 30 -15 30 -39 17 -32 -17 -73 22 -65 61 5 23 2 28 -26
38 -18 6 -33 11 -34 11 -2 0 -6 -11 -9 -24z m18 -168 c21 -30 20 -54 -4 -78
-41 -41 -110 -13 -110 44 0 53 84 78 114 34z"/>
<path d="M3418 4674 c-29 -15 -34 -29 -18 -54 15 -24 -27 -62 -62 -55 -24 6
-29 3 -38 -20 -14 -38 -13 -44 15 -51 21 -5 25 -12 25 -40 0 -27 -5 -37 -24
-45 -24 -11 -24 -12 -9 -44 14 -29 18 -32 38 -23 18 8 29 6 49 -8 21 -16 24
-25 20 -50 -5 -27 -2 -32 18 -37 38 -11 46 -8 52 18 9 35 69 36 88 2 12 -23
15 -23 46 -10 28 11 31 16 22 32 -14 26 -13 32 11 60 17 21 23 22 45 13 22
-11 26 -9 34 14 14 37 13 43 -15 56 -36 16 -35 70 0 86 25 11 25 13 10 42 -16
31 -30 36 -53 21 -9 -5 -22 -1 -38 14 -19 18 -23 29 -18 49 5 21 2 27 -21 36
-38 14 -42 13 -49 -15 -5 -21 -12 -25 -41 -25 -26 0 -37 6 -47 24 -12 23 -15
23 -40 10z m136 -165 c31 -25 34 -61 6 -89 -26 -26 -64 -25 -90 2 -27 29 -25
54 5 83 29 30 45 31 79 4z"/>
<path d="M4840 4665 c-13 -34 -75 -37 -85 -4 -6 17 -12 19 -33 14 -39 -9 -47
-21 -34 -49 9 -20 7 -27 -12 -45 -17 -16 -31 -20 -48 -16 -19 5 -27 1 -36 -20
-17 -36 -15 -42 13 -49 20 -5 25 -12 25 -40 0 -23 -7 -38 -22 -48 -20 -13 -21
-17 -9 -46 11 -27 16 -30 37 -21 19 6 31 5 50 -8 21 -14 25 -22 20 -48 -6 -28
-3 -33 16 -39 37 -10 44 -7 56 19 15 34 66 35 83 3 6 -13 13 -24 14 -26 2 -2
17 4 34 12 28 15 29 18 19 41 -10 22 -8 29 12 50 17 18 29 23 50 19 22 -5 28
-2 33 18 11 38 8 46 -18 52 -20 5 -25 13 -25 40 0 25 6 35 25 44 25 11 25 13
10 42 -17 33 -19 34 -43 21 -12 -7 -25 -3 -45 13 -24 19 -27 26 -18 48 9 24 7
27 -21 37 -40 14 -37 15 -48 -14z m-7 -146 c43 -23 50 -66 17 -99 -28 -28 -64
-25 -89 6 -27 34 -26 50 4 79 27 28 37 30 68 14z"/>
<path d="M6132 4665 c-15 -33 -77 -36 -87 -5 -7 23 -17 25 -48 9 -30 -16 -30
-15 -17 -39 17 -32 -22 -73 -61 -65 -23 5 -28 2 -38 -26 -6 -18 -11 -33 -11
-34 0 -2 11 -6 24 -9 18 -4 25 -14 28 -41 2 -19 1 -35 -2 -35 -3 0 -14 -6 -24
-13 -17 -13 -17 -15 -2 -45 15 -29 18 -30 41 -20 22 10 29 8 50 -12 20 -18 22
-26 14 -42 -12 -23 -4 -34 32 -43 21 -5 27 -2 37 19 15 35 66 36 83 4 6 -13
13 -24 14 -26 4 -5 65 27 65 34 0 3 -5 14 -11 26 -16 30 23 69 61 62 24 -5 29
-2 38 25 10 29 9 33 -12 41 -16 6 -25 19 -29 42 -2 18 -1 34 3 36 4 1 15 8 24
15 15 11 16 17 5 40 -13 29 -21 32 -47 18 -13 -7 -25 -3 -45 15 -23 19 -26 27
-17 43 5 11 10 22 10 24 0 4 -56 27 -65 27 -1 0 -7 -11 -13 -25z m16 -162 c31
-41 0 -103 -52 -103 -53 0 -78 84 -33 115 25 18 66 12 85 -12z"/>
<path d="M1406 4514 c-9 -9 -16 -32 -16 -54 0 -62 19 -69 188 -69 129 0 145 2
162 19 11 11 20 26 19 33 0 6 -5 2 -11 -10 -20 -42 -60 -36 -78 12 -10 27 15
75 40 75 10 0 26 -10 34 -22 9 -12 16 -18 16 -12 0 6 -8 18 -18 27 -27 24
-312 25 -336 1z m141 -23 c-8 -22 -8 -36 1 -57 16 -35 9 -41 -17 -15 -25 25
-27 58 -4 83 24 27 33 22 20 -11z"/>
<path d="M2697 4512 c-23 -25 -21 -78 3 -102 17 -17 34 -19 162 -19 151 0 189
10 187 47 0 13 -2 13 -9 -4 -16 -41 -53 -36 -78 11 -7 14 -6 27 4 47 18 34 47
36 68 6 9 -12 16 -18 16 -12 0 6 -8 18 -18 27 -16 14 -43 17 -169 17 -133 0
-152 -2 -166 -18z m142 -19 c-7 -18 -6 -36 1 -56 13 -39 13 -39 -9 -28 -27 15
-35 58 -16 87 21 33 37 31 24 -3z"/>
<path d="M3987 4512 c-21 -23 -22 -76 -1 -96 13 -13 42 -16 162 -16 118 0 143
2 130 13 -33 26 -38 50 -16 80 17 23 26 27 47 22 19 -4 22 -3 11 5 -8 5 -81
10 -166 10 -134 0 -153 -2 -167 -18z m148 -47 c0 -35 -4 -55 -11 -55 -24 0
-33 77 -12 98 20 20 23 14 23 -43z"/>
<path d="M5276 4508 c-21 -29 -20 -61 2 -87 16 -21 24 -22 176 -19 157 3 159
3 174 28 l14 25 -19 -23 c-43 -52 -106 7 -69 63 20 31 48 32 71 3 17 -23 17
-23 2 2 -14 25 -16 25 -175 28 -157 2 -161 2 -176 -20z m154 -3 c-8 -9 -11
-30 -7 -55 3 -22 2 -40 -2 -40 -16 0 -31 26 -31 55 0 33 15 55 38 55 12 0 12
-3 2 -15z"/>
<path d="M4460 4496 c0 -10 -16 -17 -47 -21 -27 -3 -55 -7 -63 -9 -8 -1 13 -6
48 -10 44 -6 62 -12 62 -22 0 -15 16 -10 52 18 16 12 15 15 -17 36 -27 17 -35
19 -35 8z"/>
<path d="M5753 4496 c5 -11 -7 -16 -51 -21 -83 -9 -84 -12 -9 -20 52 -6 67
-11 63 -21 -6 -16 11 -9 48 19 17 13 16 15 -19 36 -27 16 -36 18 -32 7z"/>
<path d="M1310 4490 c0 -5 -12 -10 -27 -10 -16 0 -35 -5 -43 -10 -11 -7 -7
-10 17 -10 41 0 65 -9 56 -22 -3 -6 8 -2 26 8 l32 19 -22 17 c-24 20 -39 23
-39 8z"/>
<path d="M1878 4490 c-2 -6 -30 -14 -63 -18 l-60 -9 63 -8 c44 -5 62 -12 62
-22 0 -11 8 -9 31 8 l31 22 -23 18 c-28 21 -36 23 -41 9z"/>
<path d="M2605 4490 c-4 -6 -18 -10 -33 -10 -15 0 -34 -5 -42 -10 -11 -7 -7
-10 17 -10 41 0 65 -9 56 -22 -3 -6 8 -3 26 8 17 10 31 21 31 25 0 12 -49 29
-55 19z"/>
<path d="M3168 4490 c-2 -6 -30 -14 -63 -18 l-60 -9 62 -8 c39 -5 63 -13 65
-21 2 -10 11 -8 36 8 l33 21 -31 18 c-35 22 -37 22 -42 9z"/>
<path d="M3895 4490 c-3 -5 -19 -10 -35 -10 -16 0 -32 -4 -35 -10 -4 -6 8 -10
29 -10 19 0 38 -4 41 -10 8 -13 16 -12 39 5 20 15 20 15 0 30 -23 17 -31 18
-39 5z"/>
<path d="M5190 4490 c0 -5 -15 -10 -34 -10 -19 0 -38 -4 -41 -10 -4 -6 8 -10
29 -10 19 0 38 -4 41 -10 8 -14 18 -13 41 4 19 15 19 15 -1 30 -23 18 -35 20
-35 6z"/>
<path d="M6454 4492 c7 -11 -24 -21 -69 -23 -23 -1 -18 -4 20 -12 28 -5 53
-14 56 -19 3 -5 16 0 29 10 l24 19 -33 18 c-18 9 -31 12 -27 7z"/>
<path d="M4318 4418 c-10 -10 -14 -18 -9 -18 10 0 36 29 30 34 -2 1 -12 -6
-21 -16z"/>
<path d="M2230 4160 c0 -27 5 -50 10 -50 6 0 10 8 10 18 1 16 1 16 11 0 5 -10
14 -18 20 -18 7 0 7 6 0 17 -6 11 -6 24 0 35 13 24 -6 24 -20 1 -9 -15 -10
-12 -11 15 0 17 -4 32 -10 32 -5 0 -10 -22 -10 -50z"/>
<path d="M2033 4193 c12 -3 17 -15 17 -44 0 -21 5 -39 10 -39 6 0 10 18 10 39
0 22 5 42 13 44 6 3 -6 5 -28 5 -22 0 -32 -2 -22 -5z"/>
<path d="M2348 4155 c-10 -25 -13 -45 -8 -45 5 0 12 5 15 10 9 14 42 12 48 -2
2 -7 7 -10 11 -7 10 9 -24 89 -38 89 -6 0 -19 -20 -28 -45z m36 10 c3 -8 1
-15 -4 -15 -6 0 -10 7 -10 15 0 8 2 15 4 15 2 0 6 -7 10 -15z"/>
<path d="M3530 4140 c0 -27 5 -50 10 -50 6 0 10 8 10 18 1 16 1 16 11 0 5 -10
14 -18 20 -18 7 0 7 6 0 17 -6 11 -6 24 0 35 13 24 -6 24 -20 1 -9 -15 -10
-12 -11 15 0 17 -4 32 -10 32 -5 0 -10 -22 -10 -50z"/>
<path d="M4820 4140 c0 -27 5 -50 10 -50 6 0 10 8 10 18 1 16 1 16 11 0 5 -10
14 -18 20 -18 7 0 7 6 0 17 -6 11 -6 24 0 35 13 24 -6 24 -20 1 -9 -15 -10
-12 -11 15 0 17 -4 32 -10 32 -5 0 -10 -22 -10 -50z"/>
<path d="M6100 4140 c0 -27 5 -50 10 -50 6 0 10 8 10 18 1 16 1 16 11 0 5 -10
14 -18 20 -18 7 0 7 6 0 17 -6 11 -6 24 0 35 13 24 -6 24 -20 1 -9 -15 -10
-12 -11 15 0 17 -4 32 -10 32 -5 0 -10 -22 -10 -50z"/>
<path d="M2106 4171 c-4 -5 2 -12 11 -14 17 -4 17 -5 1 -6 -11 -1 -18 -9 -18
-21 0 -15 7 -20 26 -20 23 0 25 3 22 32 -3 32 -29 50 -42 29z m34 -35 c0 -11
-19 -15 -25 -6 -3 5 1 10 9 10 9 0 16 -2 16 -4z"/>
<path d="M2173 4164 c-3 -9 0 -20 8 -25 12 -8 12 -11 -1 -19 -13 -8 -13 -10 2
-10 23 0 32 18 18 35 -9 11 -9 15 -1 15 6 0 11 5 11 10 0 16 -30 11 -37 -6z"/>
<path d="M3333 4173 c12 -3 17 -15 17 -44 0 -21 5 -39 10 -39 6 0 10 18 10 39
0 22 5 42 13 44 6 3 -6 5 -28 5 -22 0 -32 -2 -22 -5z"/>
<path d="M3640 4135 c0 -40 2 -45 23 -45 38 0 47 13 40 53 -5 33 -9 37 -34 37
-28 0 -29 -2 -29 -45z m45 25 c3 -5 -1 -10 -9 -10 -9 0 -16 5 -16 10 0 6 4 10
9 10 6 0 13 -4 16 -10z m3 -41 c-2 -6 -8 -10 -13 -10 -5 0 -11 4 -13 10 -2 6
4 11 13 11 9 0 15 -5 13 -11z"/>
<path d="M4623 4173 c12 -3 17 -15 17 -44 0 -21 5 -39 10 -39 6 0 10 18 10 39
0 22 5 42 13 44 6 3 -6 5 -28 5 -22 0 -32 -2 -22 -5z"/>
<path d="M4940 4166 c-27 -34 8 -88 46 -71 17 8 15 9 -9 13 -24 3 -28 8 -25
30 2 18 11 28 28 33 l25 7 -26 1 c-15 1 -32 -6 -39 -13z"/>
<path d="M5913 4173 c12 -3 17 -15 17 -44 0 -21 5 -39 10 -39 6 0 10 18 10 39
0 22 5 42 13 44 6 3 -6 5 -28 5 -22 0 -32 -2 -22 -5z"/>
<path d="M6210 4135 c0 -39 3 -45 21 -45 33 0 59 19 59 43 0 31 -18 47 -52 47
-27 0 -28 -2 -28 -45z m48 26 c19 -11 11 -45 -11 -49 -13 -3 -17 3 -17 27 0
32 6 37 28 22z"/>
<path d="M3406 4151 c-4 -5 2 -12 11 -14 17 -4 17 -5 1 -6 -11 -1 -18 -9 -18
-21 0 -15 7 -20 26 -20 23 0 25 3 22 32 -3 32 -29 50 -42 29z m34 -35 c0 -11
-19 -15 -25 -6 -3 5 1 10 9 10 9 0 16 -2 16 -4z"/>
<path d="M3473 4144 c-3 -9 0 -20 8 -25 12 -8 12 -11 -1 -19 -13 -8 -13 -10 2
-10 23 0 32 18 18 35 -9 11 -9 15 -1 15 6 0 11 5 11 10 0 16 -30 11 -37 -6z"/>
<path d="M4696 4151 c-4 -5 2 -12 11 -14 17 -4 17 -5 1 -6 -11 -1 -18 -9 -18
-21 0 -15 7 -20 26 -20 23 0 25 3 22 32 -3 32 -29 50 -42 29z m34 -35 c0 -11
-19 -15 -25 -6 -3 5 1 10 9 10 9 0 16 -2 16 -4z"/>
<path d="M4763 4144 c-3 -9 0 -20 8 -25 12 -8 12 -11 -1 -19 -13 -8 -13 -10 2
-10 23 0 32 18 18 35 -9 11 -9 15 -1 15 6 0 11 5 11 10 0 16 -30 11 -37 -6z"/>
<path d="M5976 4151 c-4 -5 2 -12 11 -14 17 -4 17 -5 1 -6 -11 -1 -18 -9 -18
-21 0 -15 7 -20 26 -20 23 0 25 3 22 32 -3 32 -29 50 -42 29z m34 -35 c0 -11
-19 -15 -25 -6 -3 5 1 10 9 10 9 0 16 -2 16 -4z"/>
<path d="M6043 4144 c-3 -9 0 -20 8 -25 12 -8 12 -11 -1 -19 -13 -8 -13 -10 2
-10 23 0 32 18 18 35 -9 11 -9 15 -1 15 6 0 11 5 11 10 0 16 -30 11 -37 -6z"/>
<path d="M2260 1396 c-9 -24 -72 -46 -78 -28 -1 5 -8 17 -15 26 -11 15 -17 16
-40 5 -29 -13 -32 -21 -18 -47 7 -13 3 -25 -14 -45 -20 -23 -28 -25 -49 -17
-22 8 -26 6 -35 -22 -14 -40 -15 -37 14 -48 34 -13 37 -75 4 -85 -17 -6 -19
-12 -14 -33 9 -38 20 -46 45 -32 32 17 73 -22 65 -61 -5 -23 -2 -28 26 -38 18
-6 33 -11 34 -11 2 0 6 11 9 25 5 20 12 25 40 25 23 0 38 -7 47 -20 12 -18 18
-20 46 -10 30 11 31 13 21 41 -14 41 13 73 55 65 23 -5 29 -1 37 20 14 36 13
39 -15 52 -34 15 -35 66 -2 83 12 6 23 13 25 14 5 4 -27 65 -34 65 -3 0 -14
-5 -26 -11 -30 -16 -69 23 -62 61 5 24 2 29 -25 38 -29 10 -33 9 -41 -12z m14
-168 c33 -47 5 -100 -51 -100 -30 0 -63 33 -63 63 0 52 85 79 114 37z"/>
<path d="M3550 1374 c-13 -32 -79 -35 -87 -4 -6 23 -13 24 -48 8 -27 -12 -30
-20 -16 -46 13 -25 -28 -71 -55 -61 -30 12 -31 11 -43 -23 -12 -33 -3 -47 27
-48 7 0 12 -15 12 -39 0 -31 -4 -41 -20 -46 -23 -7 -25 -17 -9 -48 16 -30 15
-30 38 -17 17 9 26 7 46 -7 21 -15 24 -24 20 -49 -4 -25 -1 -33 12 -37 10 -2
25 -8 34 -11 12 -5 18 0 23 17 4 18 14 26 38 30 32 5 51 -7 61 -36 1 -5 16 -3
35 7 29 15 30 18 20 41 -10 22 -8 29 11 49 19 21 28 23 48 15 30 -11 27 -13
41 28 10 30 9 32 -15 40 -36 12 -43 67 -10 84 12 6 23 13 25 14 2 2 -4 17 -13
35 -12 23 -21 30 -33 25 -9 -4 -22 -9 -27 -11 -6 -3 -21 6 -33 19 -18 19 -21
29 -13 49 9 23 6 26 -25 36 -32 10 -36 9 -44 -14z m12 -161 c38 -34 11 -103
-41 -103 -48 0 -78 41 -62 83 15 39 70 50 103 20z"/>
<path d="M4844 1376 c-4 -18 -14 -25 -41 -28 -29 -4 -37 0 -46 19 -12 26 -19
28 -50 12 -30 -16 -30 -15 -17 -38 9 -17 7 -26 -11 -50 -19 -25 -25 -28 -47
-20 -13 5 -25 8 -26 7 -1 -2 -8 -16 -14 -32 -13 -30 -5 -45 24 -46 7 0 14 -16
16 -36 3 -28 0 -38 -16 -46 -12 -6 -22 -12 -24 -13 -4 -3 19 -65 25 -65 2 0
13 5 24 10 15 8 25 6 48 -11 25 -19 28 -25 20 -47 -11 -29 -13 -26 28 -40 30
-10 33 -9 39 13 8 33 70 41 86 11 6 -12 12 -22 13 -24 2 -2 48 15 63 24 1 1
-2 13 -8 28 -8 22 -6 31 11 50 18 21 26 23 47 15 29 -11 26 -13 40 28 10 30 9
33 -13 39 -17 4 -24 14 -27 41 -4 29 0 37 19 46 26 12 27 16 11 52 -12 26 -24
30 -47 16 -10 -6 -23 -2 -42 11 -23 17 -26 24 -18 45 12 32 13 30 -22 42 -41
14 -38 15 -45 -13z m8 -163 c38 -34 11 -103 -40 -103 -53 0 -83 68 -46 104 20
21 63 20 86 -1z"/>
<path d="M6134 1376 c-8 -34 -70 -42 -86 -12 -6 12 -12 22 -13 24 -2 3 -65
-19 -65 -24 0 -1 5 -14 11 -27 9 -21 7 -29 -11 -50 -19 -22 -26 -24 -48 -16
-29 11 -26 13 -40 -28 -10 -30 -9 -33 13 -39 44 -11 39 -81 -8 -97 -5 -1 -3
-16 7 -35 15 -28 19 -30 43 -21 22 8 30 6 50 -13 13 -12 22 -27 19 -33 -2 -5
-7 -17 -10 -26 -5 -11 2 -18 28 -26 31 -10 35 -8 45 13 7 16 19 24 36 24 14 0
28 1 31 3 4 1 12 -7 18 -18 6 -11 12 -22 13 -24 1 -2 16 2 33 9 31 13 36 25
21 49 -6 10 -2 23 11 42 17 23 24 26 45 18 32 -12 30 -13 42 23 12 33 3 47
-26 48 -8 0 -13 15 -13 39 0 31 4 41 20 46 23 7 25 17 9 48 -16 30 -15 30 -39
17 -32 -17 -73 22 -65 61 5 23 2 28 -26 38 -41 14 -38 15 -45 -13z m1 -152
c37 -15 38 -82 1 -106 -37 -25 -96 6 -96 50 0 48 46 75 95 56z"/>
<path d="M1412 1224 c-16 -11 -22 -25 -22 -54 0 -62 19 -69 189 -69 l143 0
-26 20 c-35 27 -35 71 0 98 l26 20 -144 0 c-113 0 -149 -3 -166 -15z m148 2
c0 -3 -4 -16 -10 -30 -6 -17 -6 -35 1 -52 12 -33 4 -43 -18 -21 -20 19 -21 70
-3 91 12 15 30 22 30 12z"/>
<path d="M2700 1220 c-11 -11 -20 -33 -20 -50 0 -16 9 -39 20 -50 17 -17 33
-19 167 -19 121 0 151 3 165 16 10 9 18 20 18 26 0 5 -8 -1 -18 -14 -22 -27
-47 -21 -64 16 -24 53 29 108 64 66 10 -13 18 -19 18 -14 0 6 -8 17 -18 26
-14 13 -44 16 -165 16 -134 0 -150 -2 -167 -19z m152 -2 c-16 -16 -16 -80 0
-96 9 -9 9 -12 -3 -12 -25 0 -39 22 -39 60 0 38 14 60 39 60 12 0 12 -3 3 -12z"/>
<path d="M3990 1220 c-26 -26 -26 -74 0 -100 17 -17 33 -19 165 -19 142 0 145
1 124 18 -25 20 -30 71 -9 95 16 20 34 20 54 0 9 -8 16 -11 16 -5 0 23 -44 30
-184 30 -133 0 -149 -2 -166 -19z m152 -2 c-15 -15 -16 -63 -2 -89 13 -23 -2
-26 -24 -3 -30 30 -11 104 27 104 8 0 7 -4 -1 -12z"/>
<path d="M5288 1229 c-34 -19 -31 -97 6 -121 6 -4 77 -7 159 -7 133 0 150 2
167 19 11 11 20 26 19 33 0 6 -5 2 -11 -10 -20 -42 -60 -39 -76 5 -12 35 1 70
30 81 15 6 -28 9 -127 10 -82 0 -158 -4 -167 -10z m139 -29 c-8 -22 -8 -38 0
-60 13 -34 8 -37 -19 -13 -22 20 -23 61 -1 85 24 27 33 22 20 -12z"/>
<path d="M1741 1213 c7 -12 15 -20 18 -17 3 2 -3 12 -13 22 -17 16 -18 16 -5
-5z"/>
<path d="M5620 1210 c6 -11 13 -20 16 -20 2 0 0 9 -6 20 -6 11 -13 20 -16 20
-2 0 0 -9 6 -20z"/>
<path d="M1314 1201 c3 -5 -18 -13 -46 -17 l-53 -8 50 -7 c27 -5 51 -13 53
-18 2 -6 14 -4 29 6 l25 17 -24 18 c-25 19 -43 24 -34 9z"/>
<path d="M1872 1195 c-7 -9 -30 -15 -53 -15 -24 0 -38 -4 -34 -10 3 -5 24 -10
45 -10 26 0 42 -6 48 -16 8 -15 11 -15 36 1 32 21 33 28 1 49 -29 19 -27 19
-43 1z"/>
<path d="M2610 1201 c0 -5 -24 -13 -52 -17 l-53 -8 50 -7 c27 -5 51 -13 53
-18 2 -6 13 -4 28 5 13 9 21 20 18 25 -9 15 -44 31 -44 20z"/>
<path d="M3162 1195 c-7 -9 -30 -15 -53 -15 -24 0 -38 -4 -34 -10 3 -5 21 -10
40 -10 41 0 67 -9 59 -21 -9 -15 10 -9 36 11 l25 20 -25 20 c-30 23 -31 23
-48 5z"/>
<path d="M3900 1201 c0 -5 -24 -13 -52 -17 l-53 -8 49 -7 c27 -4 52 -12 55
-18 4 -6 17 -3 35 8 l29 19 -32 16 c-17 9 -31 12 -31 7z"/>
<path d="M4464 1201 c7 -11 -28 -21 -73 -21 -48 0 -30 -13 27 -20 29 -3 46
-10 45 -18 -4 -17 5 -15 39 9 l30 22 -29 18 c-30 20 -48 25 -39 10z"/>
<path d="M5190 1202 c0 -5 -21 -13 -47 -19 -48 -10 -48 -10 -11 -12 20 0 43
-7 51 -15 12 -12 18 -12 42 4 l28 18 -32 16 c-17 9 -31 13 -31 8z"/>
<path d="M5754 1201 c7 -11 -27 -21 -74 -21 -26 0 -31 -3 -20 -10 8 -5 32 -10
53 -10 24 0 40 -5 43 -15 5 -13 10 -13 35 2 16 10 29 20 29 23 0 6 -54 40 -65
40 -3 0 -4 -4 -1 -9z"/>
<path d="M6450 1190 c-8 -5 -28 -10 -43 -10 -16 0 -26 -4 -22 -10 3 -5 22 -10
41 -10 19 0 34 -4 34 -10 0 -14 12 -12 35 6 20 15 20 15 1 30 -23 17 -26 17
-46 4z"/>
<path d="M1741 1127 c-13 -21 -12 -21 5 -5 10 10 16 20 13 22 -3 3 -11 -5 -18
-17z"/>
<path d="M4320 1125 c-7 -9 -8 -15 -2 -15 5 0 12 7 16 15 3 8 4 15 2 15 -2 0
-9 -7 -16 -15z"/>
<path d="M2230 870 c0 -27 5 -50 10 -50 6 0 10 8 10 18 1 16 1 16 11 0 5 -10
14 -18 20 -18 7 0 7 6 0 17 -6 11 -6 24 0 35 13 24 -6 24 -20 1 -9 -15 -10
-12 -11 15 0 17 -4 32 -10 32 -5 0 -10 -22 -10 -50z"/>
<path d="M2043 903 c12 -3 17 -15 17 -44 0 -21 5 -39 10 -39 6 0 10 18 10 39
0 22 5 42 13 44 6 3 -6 5 -28 5 -22 0 -32 -2 -22 -5z"/>
<path d="M2348 865 c-10 -25 -13 -45 -8 -45 5 0 12 5 15 10 9 14 42 12 48 -2
2 -7 7 -10 11 -7 10 9 -24 89 -38 89 -6 0 -19 -20 -28 -45z m36 10 c3 -8 1
-15 -4 -15 -6 0 -10 7 -10 15 0 8 2 15 4 15 2 0 6 -7 10 -15z"/>
<path d="M3530 850 c0 -27 5 -50 10 -50 6 0 10 8 10 18 1 16 1 16 11 0 5 -10
14 -18 20 -18 7 0 7 6 0 17 -6 11 -6 24 0 35 13 24 -6 24 -20 1 -9 -15 -10
-12 -11 15 0 17 -4 32 -10 32 -5 0 -10 -22 -10 -50z"/>
<path d="M4830 850 c0 -27 5 -50 10 -50 6 0 10 8 10 18 1 16 1 16 11 0 5 -10
14 -18 20 -18 7 0 7 6 0 17 -6 11 -6 24 0 35 13 24 -6 24 -20 1 -9 -15 -10
-12 -11 15 0 17 -4 32 -10 32 -5 0 -10 -22 -10 -50z"/>
<path d="M6120 850 c0 -27 5 -50 10 -50 6 0 10 8 10 18 1 16 1 16 11 0 5 -10
14 -18 20 -18 7 0 7 6 0 17 -6 11 -6 24 0 35 13 24 -6 24 -20 1 -9 -15 -10
-12 -11 15 0 17 -4 32 -10 32 -5 0 -10 -22 -10 -50z"/>
<path d="M2106 881 c-4 -5 2 -12 11 -14 17 -4 17 -5 1 -6 -11 -1 -18 -9 -18
-21 0 -15 7 -20 26 -20 23 0 25 3 22 32 -3 32 -29 50 -42 29z m34 -35 c0 -11
-19 -15 -25 -6 -3 5 1 10 9 10 9 0 16 -2 16 -4z"/>
<path d="M2173 874 c-3 -9 0 -20 8 -25 12 -8 12 -11 -1 -19 -13 -8 -13 -10 2
-10 23 0 32 18 18 35 -9 11 -9 15 -1 15 6 0 11 5 11 10 0 16 -30 11 -37 -6z"/>
<path d="M3333 883 c12 -3 17 -15 17 -44 0 -21 5 -39 10 -39 6 0 10 18 10 39
0 22 5 42 13 44 6 3 -6 5 -28 5 -22 0 -32 -2 -22 -5z"/>
<path d="M3640 845 c0 -40 2 -45 23 -45 38 0 47 13 40 53 -5 33 -9 37 -34 37
-28 0 -29 -2 -29 -45z m45 25 c3 -5 -1 -10 -9 -10 -9 0 -16 5 -16 10 0 6 4 10
9 10 6 0 13 -4 16 -10z m3 -41 c-2 -6 -8 -10 -13 -10 -5 0 -11 4 -13 10 -2 6
4 11 13 11 9 0 15 -5 13 -11z"/>
<path d="M4633 883 c12 -3 17 -15 17 -44 0 -21 5 -39 10 -39 6 0 10 18 10 39
0 22 5 42 13 44 6 3 -6 5 -28 5 -22 0 -32 -2 -22 -5z"/>
<path d="M4940 845 c0 -44 1 -45 31 -45 17 0 28 4 24 10 -3 6 -13 10 -21 10
-20 0 -18 18 4 23 16 4 16 5 0 6 -10 0 -18 7 -18 15 0 8 8 17 18 19 10 3 6 5
-10 6 -27 1 -28 -1 -28 -44z"/>
<path d="M5923 883 c12 -3 17 -15 17 -44 0 -21 5 -39 10 -39 6 0 10 18 10 39
0 22 5 42 13 44 6 3 -6 5 -28 5 -22 0 -32 -2 -22 -5z"/>
<path d="M6230 845 c0 -25 5 -45 10 -45 6 0 10 9 10 19 0 11 8 22 18 24 16 4
16 5 0 6 -10 0 -18 7 -18 15 0 8 8 17 18 19 10 3 6 5 -10 6 -27 1 -28 -1 -28
-44z"/>
<path d="M3406 861 c-4 -5 2 -12 11 -14 17 -4 17 -5 1 -6 -11 -1 -18 -9 -18
-21 0 -15 7 -20 26 -20 23 0 25 3 22 32 -3 32 -29 50 -42 29z m34 -35 c0 -11
-19 -15 -25 -6 -3 5 1 10 9 10 9 0 16 -2 16 -4z"/>
<path d="M3473 854 c-3 -9 0 -20 8 -25 12 -8 12 -11 -1 -19 -13 -8 -13 -10 2
-10 23 0 32 18 18 35 -9 11 -9 15 -1 15 6 0 11 5 11 10 0 16 -30 11 -37 -6z"/>
<path d="M4706 861 c-4 -5 2 -12 11 -14 17 -4 17 -5 1 -6 -11 -1 -18 -9 -18
-21 0 -15 7 -20 26 -20 23 0 25 3 22 32 -3 32 -29 50 -42 29z m34 -35 c0 -11
-19 -15 -25 -6 -3 5 1 10 9 10 9 0 16 -2 16 -4z"/>
<path d="M4773 854 c-3 -9 0 -20 8 -25 12 -8 12 -11 -1 -19 -13 -8 -13 -10 2
-10 23 0 32 18 18 35 -9 11 -9 15 -1 15 6 0 11 5 11 10 0 16 -30 11 -37 -6z"/>
<path d="M5996 861 c-4 -5 2 -12 11 -14 17 -4 17 -5 1 -6 -11 -1 -18 -9 -18
-21 0 -15 7 -20 26 -20 23 0 25 3 22 32 -3 32 -29 50 -42 29z m34 -35 c0 -11
-19 -15 -25 -6 -3 5 1 10 9 10 9 0 16 -2 16 -4z"/>
<path d="M6063 854 c-3 -9 0 -20 8 -25 12 -8 12 -11 -1 -19 -13 -8 -13 -10 2
-10 23 0 32 18 18 35 -9 11 -9 15 -1 15 6 0 11 5 11 10 0 16 -30 11 -37 -6z"/>
<path d="M227 4703 c-14 -13 -6 -43 13 -53 11 -6 20 -16 20 -22 0 -5 -9 -8
-20 -5 -13 3 -20 0 -20 -10 0 -10 9 -13 33 -11 39 4 51 40 18 58 -27 14 -27
30 -1 30 11 0 20 5 20 10 0 11 -53 14 -63 3z"/>
<path d="M776 4701 c-3 -5 1 -11 9 -15 20 -7 20 -66 0 -66 -8 0 -15 -4 -15
-10 0 -5 16 -10 35 -10 19 0 35 5 35 10 0 6 -4 10 -10 10 -5 0 -10 20 -10 45
0 38 -3 45 -19 45 -11 0 -22 -4 -25 -9z"/>
<path d="M304 4666 c-12 -31 0 -61 27 -64 31 -4 52 18 47 50 -2 18 -10 24 -36
26 -21 2 -34 -2 -38 -12z m51 -27 c0 -7 -8 -15 -17 -17 -18 -3 -25 18 -11 32
10 10 28 1 28 -15z"/>
<path d="M402 4643 c3 -36 5 -38 41 -41 l37 -3 0 40 c0 30 -4 41 -15 41 -10 0
-15 -10 -15 -31 0 -38 -24 -35 -28 4 -5 42 -24 32 -20 -10z"/>
<path d="M500 4640 c0 -29 4 -40 15 -40 10 0 15 10 15 30 0 17 5 30 10 30 6 0
10 5 10 10 0 6 -11 10 -25 10 -22 0 -25 -4 -25 -40z"/>
<path d="M564 4666 c-12 -32 0 -61 29 -64 31 -4 37 13 7 21 -11 3 -20 10 -20
17 0 7 9 14 20 17 28 8 25 23 -5 23 -14 0 -28 -6 -31 -14z"/>
<path d="M644 4666 c-17 -44 13 -78 54 -60 14 6 11 9 -13 14 l-30 8 28 1 c23
1 28 5 25 24 -4 27 -55 38 -64 13z m43 -12 c-3 -3 -12 -4 -19 -1 -8 3 -5 6 6
6 11 1 17 -2 13 -5z"/>
<path d="M980 4510 c0 -19 -8 -20 -467 -22 -408 -3 -468 -5 -468 -18 0 -13 60
-15 468 -18 459 -2 467 -3 467 -22 0 -11 4 -20 9 -20 13 0 101 51 101 58 0 9
-87 62 -100 62 -6 0 -10 -9 -10 -20z"/>
<path d="M7723 4393 c-4 -10 -11 -22 -17 -26 -8 -6 -7 -10 2 -14 6 -2 12 -18
12 -34 0 -16 5 -29 10 -29 6 0 10 13 10 29 0 16 6 32 13 34 9 4 8 8 -3 17 -11
9 -12 13 -2 17 17 7 15 23 -3 23 -9 0 -19 -8 -22 -17z"/>
<path d="M8220 4391 c0 -13 -8 -21 -22 -23 -19 -2 -23 -9 -23 -38 0 -33 2 -35
38 -38 l37 -3 0 60 c0 48 -3 61 -15 61 -8 0 -15 -9 -15 -19z m0 -61 c0 -11 -7
-20 -15 -20 -15 0 -21 21 -8 33 12 13 23 7 23 -13z"/>
<path d="M7310 4390 c0 -5 7 -10 15 -10 11 0 15 -12 15 -45 0 -33 4 -45 15
-45 11 0 15 12 15 45 0 33 4 45 15 45 8 0 15 5 15 10 0 6 -20 10 -45 10 -25 0
-45 -4 -45 -10z"/>
<path d="M7400 4330 c0 -29 4 -40 15 -40 10 0 15 10 15 30 0 17 5 30 10 30 6
0 10 5 10 10 0 6 -11 10 -25 10 -22 0 -25 -4 -25 -40z"/>
<path d="M7460 4360 c0 -5 10 -10 23 -11 14 0 17 -2 7 -6 -50 -19 -46 -53 6
-53 29 0 34 3 34 24 0 42 -11 56 -41 56 -16 0 -29 -4 -29 -10z m40 -40 c0 -5
-5 -10 -11 -10 -5 0 -7 5 -4 10 3 6 8 10 11 10 2 0 4 -4 4 -10z"/>
<path d="M7550 4331 c0 -30 4 -41 15 -41 10 0 15 10 15 30 0 17 5 30 10 30 6
0 10 -13 10 -30 0 -21 5 -30 16 -30 12 0 14 9 12 38 -3 35 -5 37 -40 40 l-38
3 0 -40z"/>
<path d="M7643 4354 c-4 -11 1 -22 12 -30 17 -13 17 -14 2 -14 -9 0 -17 -4
-17 -10 0 -16 47 -12 54 5 3 8 -4 21 -17 30 -18 12 -19 15 -4 15 9 0 17 5 17
10 0 17 -40 11 -47 -6z"/>
<path d="M7774 4356 c-12 -31 0 -61 27 -64 31 -4 52 18 47 50 -2 18 -10 24
-36 26 -21 2 -34 -2 -38 -12z m51 -27 c0 -7 -8 -15 -17 -17 -18 -3 -25 18 -11
32 10 10 28 1 28 -15z"/>
<path d="M7870 4330 c0 -29 4 -40 15 -40 10 0 15 10 15 30 0 17 5 30 10 30 6
0 10 5 10 10 0 6 -11 10 -25 10 -22 0 -25 -4 -25 -40z"/>
<path d="M7940 4330 c0 -29 4 -40 15 -40 10 0 15 10 15 30 0 17 5 30 10 30 6
0 10 -13 10 -30 0 -20 5 -30 15 -30 10 0 15 10 15 30 0 17 5 30 10 30 6 0 10
-13 10 -30 0 -20 5 -30 15 -30 16 0 21 45 7 66 -4 6 -33 12 -64 13 l-58 1 0
-40z"/>
<path d="M8084 4356 c-17 -44 13 -78 54 -60 14 6 11 9 -13 14 l-30 8 28 1 c23
1 28 5 25 24 -4 27 -55 38 -64 13z m43 -12 c-3 -3 -12 -4 -19 -1 -8 3 -5 6 6
6 11 1 17 -2 13 -5z"/>
<path d="M7670 4201 c0 -13 -8 -21 -22 -23 -19 -2 -23 -9 -23 -38 0 -33 2 -35
38 -38 l37 -3 0 60 c0 48 -3 61 -15 61 -8 0 -15 -9 -15 -19z m0 -61 c0 -11 -7
-20 -15 -20 -15 0 -21 21 -8 33 12 13 23 7 23 -13z"/>
<path d="M7810 4183 c-10 -12 -11 -18 -2 -21 7 -2 12 -17 12 -33 0 -22 5 -29
20 -29 11 0 20 5 20 10 0 6 -4 10 -10 10 -14 0 -12 38 2 42 9 3 8 9 -4 21 -20
20 -19 20 -38 0z"/>
<path d="M7720 4170 c0 -5 10 -10 23 -11 14 0 17 -2 7 -6 -50 -19 -46 -53 6
-53 29 0 34 3 34 24 0 42 -11 56 -41 56 -16 0 -29 -4 -29 -10z m40 -40 c0 -5
-5 -10 -11 -10 -5 0 -7 5 -4 10 3 6 8 10 11 10 2 0 4 -4 4 -10z"/>
<path d="M7870 4170 c0 -5 10 -10 23 -11 14 0 17 -2 7 -6 -50 -19 -46 -53 6
-53 29 0 34 3 34 24 0 42 -11 56 -41 56 -16 0 -29 -4 -29 -10z m40 -40 c0 -5
-5 -10 -11 -10 -5 0 -7 5 -4 10 3 6 8 10 11 10 2 0 4 -4 4 -10z"/>
<path d="M7753 3533 c9 -2 23 -2 30 0 6 3 -1 5 -18 5 -16 0 -22 -2 -12 -5z"/>
<path d="M7948 3533 c6 -2 18 -2 25 0 6 3 1 5 -13 5 -14 0 -19 -2 -12 -5z"/>
<path d="M7698 3523 c7 -3 16 -2 19 1 4 3 -2 6 -13 5 -11 0 -14 -3 -6 -6z"/>
<path d="M8008 3523 c7 -3 16 -2 19 1 4 3 -2 6 -13 5 -11 0 -14 -3 -6 -6z"/>
<path d="M7528 3464 c-39 -21 -35 -28 5 -8 37 19 44 24 31 24 -5 -1 -21 -8
-36 -16z"/>
<path d="M8160 3476 c0 -2 7 -7 16 -10 8 -3 12 -2 9 4 -6 10 -25 14 -25 6z"/>
<path d="M8220 3446 c0 -3 9 -10 20 -16 11 -6 20 -8 20 -6 0 3 -9 10 -20 16
-11 6 -20 8 -20 6z"/>
<path d="M8270 3416 c0 -2 8 -10 18 -17 15 -13 16 -12 3 4 -13 16 -21 21 -21
13z"/>
<path d="M7355 3328 l-70 -73 73 70 c67 64 77 75 69 75 -1 0 -34 -33 -72 -72z"/>
<path d="M8365 3330 c33 -33 62 -60 64 -60 3 0 -21 27 -54 60 -33 33 -62 60
-64 60 -3 0 21 -27 54 -60z"/>
<path d="M7777 3306 c-126 -45 -199 -146 -199 -276 0 -90 29 -157 94 -215 63
-57 129 -79 217 -73 109 8 194 66 243 167 34 68 32 177 -5 247 -66 129 -221
195 -350 150z m199 -35 c49 -22 106 -79 130 -129 25 -53 30 -140 10 -199 -22
-68 -66 -117 -134 -150 -64 -31 -139 -36 -206 -14 -49 17 -121 83 -147 134
-65 127 -7 292 126 353 64 30 161 32 221 5z"/>
<path d="M7818 3246 c-56 -15 -115 -58 -137 -99 -9 -17 -24 -38 -33 -48 -10
-10 -16 -24 -14 -31 17 -55 16 -55 28 -34 6 11 13 33 15 50 7 62 84 130 162
144 23 4 42 11 42 17 1 15 -12 15 -63 1z"/>
<path d="M7890 3170 c-13 -24 -48 -26 -64 -4 -17 22 -49 7 -42 -19 7 -27 -10
-47 -39 -47 -21 0 -35 -17 -35 -41 0 -5 6 -9 14 -9 23 0 26 -49 5 -61 -28 -15
-7 -51 25 -43 26 6 51 -18 42 -41 -8 -21 33 -42 45 -24 5 8 9 17 9 22 0 14 43
7 55 -10 17 -22 45 -10 45 20 0 29 24 52 44 44 22 -9 33 33 12 48 -21 16 -21
51 0 63 13 7 14 13 5 30 -6 12 -17 19 -25 16 -24 -9 -58 15 -51 36 4 13 -1 22
-14 30 -16 8 -22 7 -31 -10z m14 -122 c15 -24 -3 -52 -37 -56 -33 -4 -53 28
-37 59 14 25 58 23 74 -3z"/>
<path d="M8061 3004 c-6 -14 -9 -29 -7 -33 8 -13 -38 -79 -73 -105 -19 -14
-58 -31 -88 -37 -35 -8 -50 -16 -44 -22 14 -14 99 9 144 40 21 15 50 47 65 72
14 25 30 49 35 52 9 7 -1 59 -12 59 -4 0 -13 -12 -20 -26z"/>
<path d="M8430 3256 c0 -2 8 -10 18 -17 15 -13 16 -12 3 4 -13 16 -21 21 -21
13z"/>
<path d="M7273 3238 c-15 -20 -25 -38 -20 -38 3 0 12 11 21 25 17 26 16 35 -1
13z"/>
<path d="M8470 3200 c6 -11 13 -20 16 -20 2 0 0 9 -6 20 -6 11 -13 20 -16 20
-2 0 0 -9 6 -20z"/>
<path d="M7220 3149 c-12 -23 -20 -43 -18 -45 3 -2 14 17 26 41 27 56 20 60
-8 4z"/>
<path d="M8496 3157 c3 -10 9 -15 12 -12 3 3 0 11 -7 18 -10 9 -11 8 -5 -6z"/>
<path d="M40 3080 c-23 -23 -24 -33 -10 -61 12 -21 70 -28 70 -8 0 6 -7 9 -15
5 -8 -3 -21 2 -30 10 -19 20 -3 54 26 54 11 0 17 5 14 10 -10 16 -33 12 -55
-10z"/>
<path d="M701 3076 c-6 -7 -7 -24 -2 -42 6 -25 12 -29 49 -32 44 -3 55 11 30
36 -9 9 -9 12 0 12 7 0 12 5 12 10 0 14 -37 12 -43 -2 -2 -7 2 -21 11 -30 14
-17 13 -18 -11 -18 -28 0 -37 25 -18 46 6 5 4 14 -4 21 -10 10 -16 9 -24 -1z"/>
<path d="M7186 3075 c-9 -26 -7 -32 5 -12 6 10 9 21 6 23 -2 3 -7 -2 -11 -11z"/>
<path d="M120 3049 c-9 -15 -8 -24 1 -35 27 -33 79 1 58 39 -14 23 -46 21 -59
-4z m44 -7 c2 -4 1 -14 -4 -22 -7 -11 -12 -12 -21 -3 -6 6 -8 16 -5 22 8 13
23 14 30 3z"/>
<path d="M200 3035 c0 -19 5 -35 10 -35 6 0 10 11 10 25 0 14 5 25 10 25 6 0
10 -11 10 -25 0 -14 5 -25 10 -25 6 0 10 11 10 25 0 14 5 25 10 25 6 0 10 -11
10 -25 0 -14 5 -25 11 -25 6 0 9 14 7 33 -3 31 -5 32 -50 35 l-48 2 0 -35z"/>
<path d="M310 3020 c0 -27 5 -50 10 -50 6 0 10 6 10 13 0 18 51 40 64 27 28
-28 74 8 55 43 -12 21 -45 22 -57 1 -8 -14 -10 -14 -21 0 -8 9 -24 16 -37 16
-22 0 -24 -4 -24 -50z m48 13 c-5 -25 -28 -28 -28 -4 0 12 6 21 16 21 9 0 14
-7 12 -17z m76 9 c2 -4 1 -14 -4 -22 -7 -11 -12 -12 -21 -3 -6 6 -8 16 -5 22
8 13 23 14 30 3z"/>
<path d="M470 3036 c0 -20 5 -36 10 -36 6 0 10 11 10 25 0 14 5 25 10 25 6 0
10 -11 10 -25 0 -14 5 -25 11 -25 6 0 9 14 7 33 -2 27 -8 33 -30 35 -26 3 -28
1 -28 -32z"/>
<path d="M550 3051 c-5 -11 -7 -27 -4 -35 7 -17 54 -22 54 -6 0 5 -6 7 -14 4
-8 -3 -17 -1 -21 5 -4 7 4 11 19 11 28 0 33 9 14 28 -18 18 -36 15 -48 -7z
m37 -7 c-3 -3 -12 -4 -19 -1 -8 3 -5 6 6 6 11 1 17 -2 13 -5z"/>
<path d="M620 3036 c0 -20 5 -36 10 -36 6 0 10 11 10 25 0 14 5 25 10 25 6 0
10 -11 10 -25 0 -14 5 -25 11 -25 6 0 9 14 7 33 -2 27 -8 33 -30 35 -26 3 -28
1 -28 -32z"/>
<path d="M7171 3024 c0 -11 3 -14 6 -6 3 7 2 16 -1 19 -3 4 -6 -2 -5 -13z"/>
<path d="M7161 2984 c0 -11 3 -14 6 -6 3 7 2 16 -1 19 -3 4 -6 -2 -5 -13z"/>
<path d="M8561 2974 c0 -11 3 -14 6 -6 3 7 2 16 -1 19 -3 4 -6 -2 -5 -13z"/>
<path d="M7152 2930 c0 -14 2 -19 5 -12 2 6 2 18 0 25 -3 6 -5 1 -5 -13z"/>
<path d="M660 2925 c0 -8 -7 -15 -15 -15 -7 0 -18 -7 -23 -16 -8 -14 -10 -14
-21 0 -18 22 -38 20 -51 -4 -6 -12 -16 -18 -23 -13 -8 5 -8 8 1 11 19 6 14 22
-7 22 -25 0 -34 -25 -14 -41 13 -12 13 -14 -4 -20 -15 -6 -13 -8 9 -8 14 -1
29 5 31 12 4 10 6 10 6 0 1 -15 51 -18 51 -3 0 5 -6 7 -14 4 -8 -3 -17 -1 -21
5 -4 7 4 11 20 11 14 0 28 -7 31 -15 4 -9 19 -15 35 -15 28 0 29 2 29 50 0 28
-4 50 -10 50 -5 0 -10 -7 -10 -15z m-73 -41 c-3 -3 -12 -4 -19 -1 -8 3 -5 6 6
6 11 1 17 -2 13 -5z m73 -14 c0 -11 -4 -20 -9 -20 -14 0 -23 18 -16 30 10 17
25 11 25 -10z"/>
<path d="M740 2930 c0 -5 5 -10 10 -10 6 0 10 5 10 10 0 6 -4 10 -10 10 -5 0
-10 -4 -10 -10z"/>
<path d="M8572 2920 c0 -14 2 -19 5 -12 2 6 2 18 0 25 -3 6 -5 1 -5 -13z"/>
<path d="M300 2875 c0 -19 5 -35 10 -35 6 0 10 11 10 25 0 14 5 25 10 25 6 0
10 5 10 10 0 6 -9 10 -20 10 -16 0 -20 -7 -20 -35z"/>
<path d="M350 2891 c-5 -11 -7 -27 -4 -35 7 -17 54 -22 54 -6 0 5 -6 7 -14 4
-8 -3 -17 -1 -21 5 -4 7 4 11 19 11 28 0 33 9 14 28 -18 18 -36 15 -48 -7z
m37 -7 c-3 -3 -12 -4 -19 -1 -8 3 -5 6 6 6 11 1 17 -2 13 -5z"/>
<path d="M420 2876 c0 -33 2 -36 30 -36 28 0 30 3 30 35 0 19 -4 35 -10 35 -5
0 -10 -11 -10 -24 0 -14 -4 -28 -10 -31 -6 -3 -10 5 -10 19 0 14 -4 28 -10 31
-6 4 -10 -8 -10 -29z"/>
<path d="M740 2875 c0 -19 5 -35 10 -35 6 0 10 16 10 35 0 19 -4 35 -10 35 -5
0 -10 -16 -10 -35z"/>
<path d="M770 2876 c0 -20 5 -36 10 -36 6 0 10 11 10 25 0 14 5 25 10 25 6 0
10 -11 10 -25 0 -14 5 -25 11 -25 6 0 9 14 7 33 -2 27 -8 33 -30 35 -26 3 -28
1 -28 -32z"/>
<path d="M7143 2825 c0 -27 2 -38 4 -22 2 15 2 37 0 50 -2 12 -4 0 -4 -28z"/>
<path d="M380 2765 c0 -8 -7 -15 -15 -15 -18 0 -37 -34 -29 -54 4 -10 18 -16
35 -16 28 0 29 2 29 50 0 28 -4 50 -10 50 -5 0 -10 -7 -10 -15z m0 -55 c0 -11
-4 -20 -9 -20 -14 0 -23 18 -16 30 10 17 25 11 25 -10z"/>
<path d="M420 2770 c0 -5 5 -10 10 -10 6 0 10 5 10 10 0 6 -4 10 -10 10 -5 0
-10 -4 -10 -10z"/>
<path d="M454 2765 c-4 -8 -12 -15 -20 -15 -9 0 -14 -12 -14 -35 0 -41 17 -47
23 -7 l4 27 2 -27 c0 -16 6 -28 11 -28 6 0 11 12 12 28 2 41 3 46 11 60 5 8 3
12 -8 12 -8 0 -18 -7 -21 -15z"/>
<path d="M502 2763 c-11 -21 -4 -83 9 -83 5 0 10 12 11 28 2 41 3 46 11 60 5
7 3 12 -7 12 -8 0 -19 -8 -24 -17z"/>
<path d="M811 2756 c-16 -19 2 -71 25 -73 10 -2 13 0 7 3 -15 7 -17 36 -4 50
6 5 4 14 -4 21 -10 10 -16 9 -24 -1z"/>
<path d="M540 2731 c-5 -11 -7 -27 -4 -35 7 -17 54 -22 54 -6 0 5 -6 7 -14 4
-8 -3 -17 -1 -21 5 -4 7 4 11 19 11 28 0 33 9 14 28 -18 18 -36 15 -48 -7z
m37 -7 c-3 -3 -12 -4 -19 -1 -8 3 -5 6 6 6 11 1 17 -2 13 -5z"/>
<path d="M610 2715 c0 -19 5 -35 10 -35 6 0 10 11 10 25 0 14 5 25 10 25 6 0
10 5 10 10 0 6 -9 10 -20 10 -16 0 -20 -7 -20 -35z"/>
<path d="M660 2731 c-5 -11 -7 -27 -4 -35 7 -17 54 -22 54 -6 0 5 -6 7 -14 4
-8 -3 -17 -1 -21 5 -4 7 4 11 19 11 28 0 33 9 14 28 -18 18 -36 15 -48 -7z
m37 -7 c-3 -3 -12 -4 -19 -1 -8 3 -5 6 6 6 11 1 17 -2 13 -5z"/>
<path d="M730 2716 c0 -20 5 -36 10 -36 6 0 10 11 10 25 0 14 5 25 10 25 6 0
10 -11 10 -25 0 -14 5 -25 11 -25 6 0 9 14 7 33 -2 27 -8 33 -30 35 -26 3 -28
1 -28 -32z"/>
<path d="M8572 2725 c0 -16 2 -22 5 -12 2 9 2 23 0 30 -3 6 -5 -1 -5 -18z"/>
<path d="M7152 2720 c0 -14 2 -19 5 -12 2 6 2 18 0 25 -3 6 -5 1 -5 -13z"/>
<path d="M7161 2664 c0 -11 3 -14 6 -6 3 7 2 16 -1 19 -3 4 -6 -2 -5 -13z"/>
<path d="M7171 2624 c0 -11 3 -14 6 -6 3 7 2 16 -1 19 -3 4 -6 -2 -5 -13z"/>
<path d="M7820 2625 c0 -9 5 -15 11 -13 6 2 11 8 11 13 0 5 -5 11 -11 13 -6 2
-11 -4 -11 -13z"/>
<path d="M7560 2576 l0 -56 34 0 c37 0 63 22 49 42 -4 7 -8 24 -8 38 0 22 -5
25 -37 28 l-38 3 0 -55z m50 24 c0 -5 -4 -10 -10 -10 -5 0 -10 5 -10 10 0 6 5
10 10 10 6 0 10 -4 10 -10z m8 -48 c2 -7 -3 -12 -12 -12 -9 0 -16 7 -16 16 0
17 22 14 28 -4z"/>
<path d="M360 2610 c0 -5 5 -10 10 -10 6 0 10 5 10 10 0 6 -4 10 -10 10 -5 0
-10 -4 -10 -10z"/>
<path d="M550 2570 c0 -27 5 -50 10 -50 6 0 10 23 10 50 0 28 -4 50 -10 50 -5
0 -10 -22 -10 -50z"/>
<path d="M580 2610 c0 -5 5 -10 10 -10 6 0 10 5 10 10 0 6 -4 10 -10 10 -5 0
-10 -4 -10 -10z"/>
<path d="M7662 2563 c3 -36 5 -38 41 -41 l37 -3 0 40 c0 30 -4 41 -15 41 -10
0 -15 -10 -15 -31 0 -38 -24 -35 -28 4 -5 42 -24 32 -20 -10z"/>
<path d="M7753 2584 c-4 -11 1 -22 12 -30 17 -13 17 -14 2 -14 -9 0 -17 -4
-17 -10 0 -16 47 -12 54 5 3 8 -4 21 -17 30 -18 12 -19 15 -4 15 9 0 17 5 17
10 0 17 -40 11 -47 -6z"/>
<path d="M7820 2560 c0 -29 4 -40 15 -40 11 0 15 11 15 40 0 29 -4 40 -15 40
-11 0 -15 -11 -15 -40z"/>
<path d="M7870 2561 c0 -30 4 -41 15 -41 10 0 15 10 15 30 0 17 5 30 10 30 6
0 10 -13 10 -30 0 -21 5 -30 16 -30 12 0 14 9 12 38 -3 35 -5 37 -40 40 l-38
3 0 -40z"/>
<path d="M7974 2586 c-17 -44 13 -78 54 -60 14 6 11 9 -13 14 l-30 8 28 1 c23
1 28 5 25 24 -4 27 -55 38 -64 13z m43 -12 c-3 -3 -12 -4 -19 -1 -8 3 -5 6 6
6 11 1 17 -2 13 -5z"/>
<path d="M8053 2584 c-4 -11 1 -22 12 -30 17 -13 17 -14 2 -14 -9 0 -17 -4
-17 -10 0 -16 47 -12 54 5 3 8 -4 21 -17 30 -18 12 -19 15 -4 15 9 0 17 5 17
10 0 17 -40 11 -47 -6z"/>
<path d="M8123 2584 c-4 -11 1 -22 12 -30 17 -13 17 -14 2 -14 -9 0 -17 -4
-17 -10 0 -16 47 -12 54 5 3 8 -4 21 -17 30 -18 12 -19 15 -4 15 9 0 17 5 17
10 0 17 -40 11 -47 -6z"/>
<path d="M280 2540 c0 -27 5 -50 10 -50 6 0 10 6 10 14 0 7 9 16 20 19 45 12
31 67 -16 67 -22 0 -24 -4 -24 -50z m48 13 c-5 -25 -28 -28 -28 -4 0 12 6 21
16 21 9 0 14 -7 12 -17z"/>
<path d="M360 2555 c0 -19 5 -35 10 -35 6 0 10 16 10 35 0 19 -4 35 -10 35 -5
0 -10 -16 -10 -35z"/>
<path d="M400 2540 c0 -27 5 -50 10 -50 6 0 10 6 10 13 0 16 54 41 58 27 5
-13 52 -13 52 0 0 5 -6 7 -14 4 -8 -3 -17 -1 -21 5 -4 7 4 11 20 11 29 0 30
17 1 34 -13 9 -20 7 -30 -7 -12 -15 -15 -15 -26 -2 -7 8 -23 15 -36 15 -22 0
-24 -4 -24 -50z m48 13 c-5 -25 -28 -28 -28 -4 0 12 6 21 16 21 9 0 14 -7 12
-17z m69 11 c-3 -3 -12 -4 -19 -1 -8 3 -5 6 6 6 11 1 17 -2 13 -5z"/>
<path d="M580 2555 c0 -19 5 -35 10 -35 6 0 10 16 10 35 0 19 -4 35 -10 35 -5
0 -10 -16 -10 -35z"/>
<path d="M620 2555 c0 -19 5 -35 10 -35 6 0 10 11 10 25 0 14 5 25 10 25 6 0
10 -11 10 -25 0 -26 15 -34 23 -12 4 10 6 10 6 0 1 -15 51 -18 51 -3 0 5 -6 7
-14 4 -8 -3 -17 -1 -20 4 -9 15 53 20 65 6 7 -9 5 -14 -8 -17 -12 -3 -8 -5 10
-6 29 -1 36 16 15 37 -9 9 -9 12 0 12 7 0 12 5 12 10 0 14 -37 13 -42 -1 -3
-8 -10 -8 -27 2 -20 12 -24 12 -35 -4 -12 -15 -14 -16 -20 -2 -3 8 -17 15 -31
15 -22 0 -25 -4 -25 -35z m107 9 c-3 -3 -12 -4 -19 -1 -8 3 -5 6 6 6 11 1 17
-2 13 -5z"/>
<path d="M7200 2546 c0 -18 65 -128 97 -163 l34 -38 -30 40 c-17 23 -47 70
-66 105 -19 36 -35 61 -35 56z"/>
<path d="M8497 2495 c-9 -19 -15 -35 -12 -35 7 0 37 61 33 66 -3 2 -12 -12
-21 -31z"/>
<path d="M7690 2391 c0 -48 3 -61 15 -61 13 0 15 11 13 57 -4 81 -28 85 -28 4z"/>
<path d="M7930 2435 c0 -9 5 -15 11 -13 6 2 11 8 11 13 0 5 -5 11 -11 13 -6 2
-11 -4 -11 -13z"/>
<path d="M8376 2332 c-72 -79 -74 -81 -17 -27 53 51 110 116 99 114 -2 0 -39
-39 -82 -87z"/>
<path d="M7744 2396 c-12 -31 0 -61 27 -64 31 -4 52 18 47 50 -2 18 -10 24
-36 26 -21 2 -34 -2 -38 -12z m51 -27 c0 -7 -8 -15 -17 -17 -18 -3 -25 18 -11
32 10 10 28 1 28 -15z"/>
<path d="M7844 2396 c-11 -29 1 -61 24 -64 27 -4 19 -22 -9 -22 -11 0 -17 -4
-14 -10 9 -15 42 -12 59 6 10 9 16 33 16 60 0 44 0 44 -35 44 -22 0 -38 -6
-41 -14z m46 -26 c0 -11 -7 -20 -15 -20 -15 0 -21 21 -8 33 12 13 23 7 23 -13z"/>
<path d="M7930 2370 c0 -29 4 -40 15 -40 11 0 15 11 15 40 0 29 -4 40 -15 40
-11 0 -15 -11 -15 -40z"/>
<path d="M7984 2396 c-12 -32 0 -61 29 -64 31 -4 37 13 7 21 -11 3 -20 10 -20
17 0 7 9 14 20 17 28 8 25 23 -5 23 -14 0 -28 -6 -31 -14z"/>
<path d="M7350 2315 c13 -14 26 -25 28 -25 3 0 -5 11 -18 25 -13 14 -26 25
-28 25 -3 0 5 -11 18 -25z"/>
<path d="M7423 2257 c35 -32 145 -97 163 -97 5 0 -20 16 -56 35 -35 19 -82 49
-105 66 l-40 30 38 -34z"/>
<path d="M8260 2229 c-22 -18 -22 -19 -3 -10 12 6 25 16 28 21 9 15 3 12 -25
-11z"/>
<path d="M8180 2185 c-25 -13 -41 -24 -37 -25 11 0 87 39 87 45 0 7 0 7 -50
-20z"/>
<path d="M8100 2150 c-8 -5 -10 -10 -5 -10 6 0 17 5 25 10 8 5 11 10 5 10 -5
0 -17 -5 -25 -10z"/>
<path d="M7658 2133 c7 -3 16 -2 19 1 4 3 -2 6 -13 5 -11 0 -14 -3 -6 -6z"/>
<path d="M8058 2133 c7 -3 16 -2 19 1 4 3 -2 6 -13 5 -11 0 -14 -3 -6 -6z"/>
<path d="M7698 2123 c7 -3 16 -2 19 1 4 3 -2 6 -13 5 -11 0 -14 -3 -6 -6z"/>
<path d="M8018 2123 c7 -3 16 -2 19 1 4 3 -2 6 -13 5 -11 0 -14 -3 -6 -6z"/>
<path d="M7748 2113 c6 -2 18 -2 25 0 6 3 1 5 -13 5 -14 0 -19 -2 -12 -5z"/>
<path d="M7958 2113 c6 -2 18 -2 25 0 6 3 1 5 -13 5 -14 0 -19 -2 -12 -5z"/>
<path d="M7843 2103 c15 -2 37 -2 50 0 12 2 0 4 -28 4 -27 0 -38 -2 -22 -4z"/>
<path d="M6893 1913 c-4 -10 -11 -22 -17 -26 -8 -6 -7 -10 2 -14 6 -2 12 -18
12 -34 0 -16 5 -29 10 -29 6 0 10 13 10 29 0 16 6 32 13 34 9 4 8 8 -3 17 -11
9 -12 13 -2 17 17 7 15 23 -3 23 -9 0 -19 -8 -22 -17z"/>
<path d="M7380 1911 c0 -13 -8 -21 -22 -23 -19 -2 -23 -9 -23 -38 0 -33 2 -35
38 -38 l37 -3 0 60 c0 48 -3 61 -15 61 -8 0 -15 -9 -15 -19z m0 -61 c0 -11 -7
-20 -15 -20 -15 0 -21 21 -8 33 12 13 23 7 23 -13z"/>
<path d="M6470 1910 c0 -5 7 -10 15 -10 11 0 15 -12 15 -45 0 -33 4 -45 15
-45 11 0 15 12 15 45 0 33 4 45 15 45 8 0 15 5 15 10 0 6 -20 10 -45 10 -25 0
-45 -4 -45 -10z"/>
<path d="M6560 1850 c0 -29 4 -40 15 -40 10 0 15 10 15 30 0 17 5 30 10 30 6
0 10 5 10 10 0 6 -11 10 -25 10 -22 0 -25 -4 -25 -40z"/>
<path d="M6620 1880 c0 -5 10 -10 23 -11 14 0 17 -2 7 -6 -50 -19 -46 -53 6
-53 29 0 34 3 34 24 0 42 -11 56 -41 56 -16 0 -29 -4 -29 -10z m40 -40 c0 -5
-5 -10 -11 -10 -5 0 -7 5 -4 10 3 6 8 10 11 10 2 0 4 -4 4 -10z"/>
<path d="M6710 1851 c0 -30 4 -41 15 -41 10 0 15 10 15 30 0 17 5 30 10 30 6
0 10 -13 10 -30 0 -21 5 -30 16 -30 12 0 14 9 12 38 -3 35 -5 37 -40 40 l-38
3 0 -40z"/>
<path d="M6813 1874 c-4 -11 1 -22 12 -30 17 -13 17 -14 2 -14 -9 0 -17 -4
-17 -10 0 -16 47 -12 54 5 3 8 -4 21 -17 30 -18 12 -19 15 -4 15 9 0 17 5 17
10 0 17 -40 11 -47 -6z"/>
<path d="M6944 1876 c-12 -31 0 -61 27 -64 31 -4 52 18 47 50 -2 18 -10 24
-36 26 -21 2 -34 -2 -38 -12z m51 -27 c0 -7 -8 -15 -17 -17 -18 -3 -25 18 -11
32 10 10 28 1 28 -15z"/>
<path d="M7030 1850 c0 -29 4 -40 15 -40 10 0 15 10 15 30 0 17 5 30 10 30 6
0 10 5 10 10 0 6 -11 10 -25 10 -22 0 -25 -4 -25 -40z"/>
<path d="M7100 1850 c0 -29 4 -40 15 -40 10 0 15 10 15 30 0 17 5 30 10 30 6
0 10 -13 10 -30 0 -20 5 -30 15 -30 10 0 15 10 15 30 0 17 5 30 10 30 6 0 10
-13 10 -30 0 -20 5 -30 15 -30 16 0 21 45 7 66 -4 6 -33 12 -64 13 l-58 1 0
-40z"/>
<path d="M7244 1876 c-17 -44 13 -78 54 -60 14 6 11 9 -13 14 l-30 8 28 1 c23
1 28 5 25 24 -4 27 -55 38 -64 13z m43 -12 c-3 -3 -12 -4 -19 -1 -8 3 -5 6 6
6 11 1 17 -2 13 -5z"/>
<path d="M6840 1721 c0 -13 -8 -21 -22 -23 -19 -2 -23 -9 -23 -38 0 -33 2 -35
38 -38 l37 -3 0 60 c0 48 -3 61 -15 61 -8 0 -15 -9 -15 -19z m0 -61 c0 -11 -7
-20 -15 -20 -15 0 -21 21 -8 33 12 13 23 7 23 -13z"/>
<path d="M6970 1703 c-10 -12 -11 -18 -2 -21 7 -2 12 -17 12 -33 0 -22 5 -29
20 -29 11 0 20 5 20 10 0 6 -4 10 -10 10 -14 0 -12 38 2 42 9 3 8 9 -4 21 -20
20 -19 20 -38 0z"/>
<path d="M6890 1690 c0 -5 10 -10 23 -11 14 0 17 -2 7 -6 -50 -19 -46 -53 6
-53 29 0 34 3 34 24 0 42 -11 56 -41 56 -16 0 -29 -4 -29 -10z m40 -40 c0 -5
-5 -10 -11 -10 -5 0 -7 5 -4 10 3 6 8 10 11 10 2 0 4 -4 4 -10z"/>
<path d="M7030 1690 c0 -5 10 -10 23 -11 14 0 17 -2 7 -6 -50 -19 -46 -53 6
-53 29 0 34 3 34 24 0 42 -11 56 -41 56 -16 0 -29 -4 -29 -10z m40 -40 c0 -5
-5 -10 -11 -10 -5 0 -7 5 -4 10 3 6 8 10 11 10 2 0 4 -4 4 -10z"/>
<path d="M563 1593 c-4 -10 -11 -22 -17 -26 -8 -6 -7 -10 2 -14 6 -2 12 -18
12 -34 0 -16 5 -29 10 -29 6 0 10 13 10 29 0 16 6 32 13 34 9 4 8 8 -3 17 -11
9 -12 13 -2 17 17 7 15 23 -3 23 -9 0 -19 -8 -22 -17z"/>
<path d="M160 1545 l0 -55 33 0 c39 0 67 25 67 61 0 35 -18 49 -62 49 l-38 0
0 -55z m65 0 c0 -20 -6 -31 -17 -33 -15 -3 -18 4 -18 33 0 29 3 36 18 33 11
-2 17 -13 17 -33z"/>
<path d="M360 1573 c-10 -12 -11 -18 -2 -21 7 -2 12 -17 12 -33 0 -22 5 -29
20 -29 11 0 20 5 20 10 0 6 -4 10 -10 10 -14 0 -12 38 2 42 9 3 8 9 -4 21 -20
20 -19 20 -38 0z"/>
<path d="M280 1560 c0 -5 10 -10 23 -11 14 0 17 -2 7 -6 -50 -19 -46 -53 6
-53 29 0 34 3 34 24 0 42 -11 56 -41 56 -16 0 -29 -4 -29 -10z m40 -40 c0 -5
-5 -10 -11 -10 -5 0 -7 5 -4 10 3 6 8 10 11 10 2 0 4 -4 4 -10z"/>
<path d="M420 1560 c0 -5 10 -10 23 -11 14 0 17 -2 7 -6 -50 -19 -46 -53 6
-53 29 0 34 3 34 24 0 42 -11 56 -41 56 -16 0 -29 -4 -29 -10z m40 -40 c0 -5
-5 -10 -11 -10 -5 0 -7 5 -4 10 3 6 8 10 11 10 2 0 4 -4 4 -10z"/>
<path d="M610 1530 c0 -29 4 -40 15 -40 10 0 15 10 15 30 0 17 5 30 10 30 6 0
10 5 10 10 0 6 -11 10 -25 10 -22 0 -25 -4 -25 -40z"/>
<path d="M684 1556 c-12 -31 0 -61 27 -64 31 -4 52 18 47 50 -2 18 -10 24 -36
26 -21 2 -34 -2 -38 -12z m51 -27 c0 -7 -8 -15 -17 -17 -18 -3 -25 18 -11 32
10 10 28 1 28 -15z"/>
<path d="M770 1530 c0 -29 4 -40 15 -40 10 0 15 10 15 30 0 17 5 30 10 30 6 0
10 -13 10 -30 0 -20 5 -30 15 -30 10 0 15 10 15 30 0 17 5 30 10 30 6 0 10
-13 10 -30 0 -20 5 -30 15 -30 16 0 21 45 7 66 -4 6 -33 12 -64 13 l-58 1 0
-40z"/>
<path d="M227 1403 c-14 -13 -6 -43 13 -53 11 -6 20 -16 20 -22 0 -5 -9 -8
-20 -5 -13 3 -20 0 -20 -10 0 -10 9 -13 33 -11 39 4 51 40 18 58 -27 14 -27
30 -1 30 11 0 20 5 20 10 0 11 -53 14 -63 3z"/>
<path d="M775 1401 c-4 -7 4 -11 19 -11 33 0 33 -15 1 -44 -34 -32 -31 -46 10
-46 19 0 35 5 35 10 0 6 -10 10 -22 10 l-21 0 22 24 c29 31 24 60 -11 64 -14
2 -29 -2 -33 -7z"/>
<path d="M304 1366 c-12 -31 0 -61 27 -64 31 -4 52 18 47 50 -2 18 -10 24 -36
26 -21 2 -34 -2 -38 -12z m51 -27 c0 -7 -8 -15 -17 -17 -18 -3 -25 18 -11 32
10 10 28 1 28 -15z"/>
<path d="M402 1343 c3 -36 5 -38 41 -41 l37 -3 0 40 c0 30 -4 41 -15 41 -10 0
-15 -10 -15 -31 0 -38 -24 -35 -28 4 -5 42 -24 32 -20 -10z"/>
<path d="M500 1340 c0 -29 4 -40 15 -40 10 0 15 10 15 30 0 17 5 30 10 30 6 0
10 5 10 10 0 6 -11 10 -25 10 -22 0 -25 -4 -25 -40z"/>
<path d="M564 1366 c-12 -32 0 -61 29 -64 31 -4 37 13 7 21 -11 3 -20 10 -20
17 0 7 9 14 20 17 28 8 25 23 -5 23 -14 0 -28 -6 -31 -14z"/>
<path d="M644 1366 c-17 -44 13 -78 54 -60 14 6 11 9 -13 14 l-30 8 28 1 c23
1 28 5 25 24 -4 27 -55 38 -64 13z m43 -12 c-3 -3 -12 -4 -19 -1 -8 3 -5 6 6
6 11 1 17 -2 13 -5z"/>
<path d="M980 1215 l0 -25 -470 0 c-411 0 -470 -2 -470 -15 0 -13 59 -15 470
-15 463 0 470 0 470 -20 0 -27 16 -25 73 9 l49 28 -55 32 c-30 17 -57 31 -61
31 -3 0 -6 -11 -6 -25z"/>
<path d="M25 315 c0 -52 1 -55 25 -54 14 0 19 3 13 6 -7 2 -13 12 -13 20 0 11
7 14 25 9 21 -5 25 -3 25 14 0 17 -4 19 -25 14 -19 -5 -25 -2 -25 9 0 20 22
35 28 19 5 -17 22 -15 22 3 0 11 -11 15 -37 15 l-38 0 0 -55z"/>
<path d="M125 300 c0 -36 2 -40 25 -39 14 0 19 3 13 6 -16 6 -17 45 -1 61 9 9
7 12 -12 12 -22 0 -25 -4 -25 -40z"/>
<path d="M202 328 c-15 -15 -15 -41 0 -56 17 -17 65 -15 72 4 9 23 8 24 -15
24 -15 0 -19 -4 -15 -16 4 -11 1 -14 -11 -12 -21 4 -27 27 -13 48 8 12 13 13
30 2 17 -10 20 -10 20 3 0 18 -50 21 -68 3z"/>
<path d="M299 303 c6 -34 9 -38 36 -38 27 0 30 4 36 38 4 24 2 37 -5 37 -6 0
-11 -15 -11 -32 0 -23 -5 -33 -15 -33 -10 0 -15 10 -15 33 0 23 -4 32 -16 32
-13 0 -15 -7 -10 -37z"/>
<path d="M415 300 c0 -36 2 -40 25 -40 19 0 22 2 10 10 -8 5 -11 13 -6 17 4 4
13 0 20 -10 7 -9 19 -17 26 -17 9 0 9 5 -3 18 -12 13 -14 21 -6 29 17 17 1 33
-34 33 -31 0 -32 -2 -32 -40z m45 15 c0 -8 -4 -15 -10 -15 -5 0 -10 7 -10 15
0 8 5 15 10 15 6 0 10 -7 10 -15z"/>
<path d="M525 300 c0 -38 1 -40 33 -40 31 0 32 2 32 40 0 38 -1 40 -32 40 -32
0 -33 -2 -33 -40z m55 20 c0 -5 -7 -10 -15 -10 -8 0 -15 5 -15 10 0 6 7 10 15
10 8 0 15 -4 15 -10z m0 -40 c0 -5 -7 -10 -15 -10 -8 0 -15 5 -15 10 0 6 7 10
15 10 8 0 15 -4 15 -10z"/>
<path d="M660 325 c0 -8 5 -15 10 -15 6 0 10 5 10 12 0 9 3 9 13 -1 10 -10 8
-16 -10 -31 -31 -25 -29 -30 15 -30 32 1 35 2 20 14 -13 9 -14 16 -6 24 6 6 8
18 5 26 -8 21 -57 21 -57 1z"/>
<path d="M33 125 c-20 -53 -20 -55 -2 -55 12 0 16 5 13 15 -4 10 0 15 14 15
24 0 38 -16 20 -23 -7 -3 -1 -6 14 -6 l26 -1 -21 55 c-12 30 -26 55 -32 55 -5
0 -20 -25 -32 -55z m37 10 c0 -8 -4 -15 -10 -15 -5 0 -7 7 -4 15 4 8 8 15 10
15 2 0 4 -7 4 -15z"/>
<path d="M318 173 c7 -3 12 -23 12 -48 0 -25 -5 -45 -12 -48 -7 -3 -2 -6 12
-6 24 -1 25 1 22 54 -3 49 -6 55 -25 54 -12 0 -16 -3 -9 -6z"/>
<path d="M1058 173 c7 -3 12 -23 12 -48 0 -25 -5 -45 -12 -48 -7 -3 -2 -6 12
-6 24 -1 25 1 22 54 -3 49 -6 55 -25 54 -12 0 -16 -3 -9 -6z"/>
<path d="M1667 160 c4 -14 0 -20 -10 -20 -20 0 -39 -33 -31 -54 4 -11 19 -16
46 -16 35 0 39 2 28 15 -7 8 -10 32 -8 55 3 32 0 40 -13 40 -12 0 -16 -6 -12
-20z m3 -57 c0 -20 -3 -24 -11 -16 -7 7 -9 19 -6 27 10 24 17 19 17 -11z"/>
<path d="M1758 173 c7 -3 12 -24 12 -54 0 -45 2 -49 25 -49 27 0 48 30 39 54
-3 9 -15 16 -25 16 -12 0 -19 7 -19 20 0 14 -6 20 -22 19 -13 0 -17 -3 -10 -6z
m52 -74 c0 -10 -4 -19 -10 -19 -5 0 -10 12 -10 26 0 14 4 23 10 19 6 -3 10
-15 10 -26z"/>
<path d="M3017 160 c4 -14 0 -20 -10 -20 -20 0 -39 -33 -31 -54 4 -11 19 -16
46 -16 35 0 39 2 28 15 -7 8 -10 32 -8 55 3 32 0 40 -13 40 -12 0 -16 -6 -12
-20z m3 -57 c0 -20 -3 -24 -11 -16 -7 7 -9 19 -6 27 10 24 17 19 17 -11z"/>
<path d="M3123 163 c-4 -10 -11 -21 -17 -25 -7 -5 -7 -8 2 -8 6 0 12 -11 12
-24 0 -13 -6 -27 -12 -29 -7 -3 -1 -6 13 -6 23 -1 25 2 21 29 -3 23 -1 30 13
30 14 0 16 -7 13 -30 -3 -23 -1 -30 12 -30 12 0 15 8 12 35 -3 29 -8 35 -28
35 -25 0 -34 24 -11 33 7 3 5 6 -6 6 -10 1 -21 -7 -24 -16z"/>
<path d="M3218 173 c7 -3 12 -23 12 -48 0 -25 -5 -45 -12 -48 -7 -3 -2 -6 12
-6 24 -1 25 1 22 54 -3 49 -6 55 -25 54 -12 0 -16 -3 -9 -6z"/>
<path d="M464 142 c-7 -4 -8 -18 -2 -39 8 -31 12 -33 51 -33 l43 0 -4 35 c-3
21 -10 35 -18 35 -10 0 -12 -8 -7 -30 5 -26 3 -30 -16 -30 -16 0 -21 6 -21 25
0 14 6 25 13 25 8 0 7 4 -3 10 -18 12 -22 12 -36 2z"/>
<path d="M1494 142 c-7 -4 -8 -18 -2 -39 7 -25 14 -33 31 -32 12 0 16 3 10 6
-7 2 -13 16 -13 29 0 13 6 24 13 24 8 0 7 4 -3 10 -18 12 -22 12 -36 2z"/>
<path d="M3274 142 c-7 -4 -8 -18 -2 -39 7 -25 14 -33 31 -32 12 0 16 3 10 6
-7 2 -13 16 -13 29 0 13 6 24 13 24 8 0 7 4 -3 10 -18 12 -22 12 -36 2z"/>
<path d="M170 121 c0 -10 8 -22 18 -26 16 -7 15 -8 -3 -15 -19 -8 -19 -9 2 -9
30 -1 38 17 18 39 -15 17 -15 19 2 23 12 3 9 5 -9 6 -21 1 -28 -4 -28 -18z"/>
<path d="M231 122 c-14 -27 8 -55 40 -50 19 2 24 9 24 33 0 25 -4 31 -27 33
-18 2 -30 -3 -37 -16z m44 -17 c0 -10 -6 -20 -12 -22 -8 -3 -13 5 -13 22 0 17
5 25 13 23 6 -3 12 -13 12 -23z"/>
<path d="M370 121 c0 -38 12 -51 44 -51 31 0 32 1 28 35 -2 19 -10 35 -17 35
-8 0 -11 -9 -8 -24 3 -13 0 -27 -6 -30 -7 -5 -11 4 -11 23 0 21 -5 31 -15 31
-8 0 -15 -9 -15 -19z"/>
<path d="M571 122 c-14 -27 8 -55 40 -50 19 2 24 9 24 33 0 25 -4 31 -27 33
-18 2 -30 -3 -37 -16z m44 -17 c0 -10 -6 -20 -12 -22 -8 -3 -13 5 -13 22 0 17
5 25 13 23 6 -3 12 -13 12 -23z"/>
<path d="M666 115 c4 -18 2 -30 -7 -36 -9 -6 2 -9 32 -9 l46 0 -6 33 c-6 27
-12 32 -39 35 -31 3 -32 2 -26 -23z m44 -15 c0 -11 -4 -20 -10 -20 -5 0 -10 9
-10 20 0 11 5 20 10 20 6 0 10 -9 10 -20z"/>
<path d="M796 114 c4 -17 2 -29 -7 -35 -9 -5 21 -9 76 -9 l91 0 -4 34 c-4 34
-4 34 -58 35 l-53 0 6 -29 c4 -23 2 -30 -11 -30 -11 0 -16 9 -16 30 0 20 -5
30 -15 30 -12 0 -14 -7 -9 -26z m94 -14 c0 -11 -4 -20 -10 -20 -5 0 -10 9 -10
20 0 11 5 20 10 20 6 0 10 -9 10 -20z m40 0 c0 -11 -4 -20 -10 -20 -5 0 -10 9
-10 20 0 11 5 20 10 20 6 0 10 -9 10 -20z"/>
<path d="M978 94 c3 -33 1 -49 -9 -55 -10 -6 -7 -9 13 -9 21 0 25 4 21 20 -4
13 0 20 10 20 22 0 39 26 32 50 -5 15 -15 20 -39 20 l-34 0 6 -46z m42 5 c0
-10 -4 -19 -10 -19 -5 0 -10 12 -10 26 0 14 4 23 10 19 6 -3 10 -15 10 -26z"/>
<path d="M1112 123 c-19 -35 33 -76 53 -42 4 6 0 9 -10 7 -10 -2 -20 3 -22 10
-3 7 4 12 17 12 28 0 21 24 -8 28 -12 2 -25 -4 -30 -15z"/>
<path d="M1196 114 c4 -17 2 -29 -7 -35 -9 -5 10 -9 51 -9 l66 0 -4 34 c-4 34
-4 34 -58 35 -53 0 -54 0 -48 -25z m44 -14 c0 -11 -4 -20 -10 -20 -5 0 -10 9
-10 20 0 11 5 20 10 20 6 0 10 -9 10 -20z m40 0 c0 -11 -4 -20 -10 -20 -5 0
-10 9 -10 20 0 11 5 20 10 20 6 0 10 -9 10 -20z"/>
<path d="M1322 123 c-19 -35 33 -76 53 -42 4 6 0 9 -10 7 -10 -2 -20 3 -22 10
-3 7 4 12 17 12 28 0 21 24 -8 28 -12 2 -25 -4 -30 -15z"/>
<path d="M1406 115 c4 -18 2 -30 -7 -36 -9 -6 2 -9 32 -9 l46 0 -6 33 c-6 27
-12 32 -39 35 -31 3 -32 2 -26 -23z m44 -15 c0 -11 -4 -20 -10 -20 -5 0 -10 9
-10 20 0 11 5 20 10 20 6 0 10 -9 10 -20z"/>
<path d="M1552 123 c-19 -35 33 -76 53 -42 4 6 0 9 -10 7 -10 -2 -20 3 -22 10
-3 7 4 12 17 12 28 0 21 24 -8 28 -12 2 -25 -4 -30 -15z"/>
<path d="M1855 100 c8 -24 10 -42 4 -45 -12 -8 -12 -25 1 -25 10 0 32 38 50
85 8 20 6 25 -6 25 -8 0 -13 -3 -11 -7 3 -5 1 -17 -3 -28 -7 -18 -8 -18 -15 8
-4 15 -13 27 -21 27 -11 0 -11 -7 1 -40z"/>
<path d="M1970 121 c0 -38 12 -51 44 -51 31 0 32 1 28 35 -2 19 -10 35 -17 35
-8 0 -11 -9 -8 -24 3 -13 0 -27 -6 -30 -7 -5 -11 4 -11 23 0 21 -5 31 -15 31
-8 0 -15 -9 -15 -19z"/>
<path d="M2070 121 c0 -10 8 -22 18 -26 16 -7 15 -8 -3 -15 -12 -4 19 -8 76
-9 l97 -1 -7 32 c-6 28 -12 33 -39 36 -31 3 -32 2 -26 -27 5 -24 3 -31 -10
-31 -11 0 -16 9 -16 30 0 20 -5 30 -15 30 -11 0 -13 -8 -8 -30 7 -36 -2 -38
-27 -7 -17 20 -17 23 -2 29 12 5 9 7 -10 7 -21 1 -28 -4 -28 -18z m160 -21 c0
-11 -4 -20 -10 -20 -5 0 -10 9 -10 20 0 11 5 20 10 20 6 0 10 -9 10 -20z"/>
<path d="M2290 130 c0 -14 0 -17 -10 -48 -10 -39 1 -54 36 -50 38 4 41 39 4
48 -24 6 -24 6 -4 12 12 3 23 15 27 27 4 18 1 21 -24 21 -16 0 -29 -4 -29 -10z
m40 -80 c0 -5 -6 -10 -14 -10 -8 0 -18 5 -21 10 -3 6 3 10 14 10 12 0 21 -4
21 -10z"/>
<path d="M2408 94 c3 -33 1 -49 -9 -55 -10 -6 -7 -9 13 -9 21 0 25 4 21 20 -4
13 0 20 10 20 22 0 39 26 32 50 -5 15 -15 20 -39 20 l-34 0 6 -46z m42 5 c0
-10 -4 -19 -10 -19 -5 0 -10 12 -10 26 0 14 4 23 10 19 6 -3 10 -15 10 -26z"/>
<path d="M2496 114 c4 -17 2 -29 -7 -35 -10 -6 -7 -9 11 -9 24 0 26 3 22 35
-3 22 -10 35 -18 35 -10 0 -13 -7 -8 -26z"/>
<path d="M2548 94 c3 -33 1 -49 -9 -55 -10 -6 -7 -9 13 -9 21 0 25 4 21 20 -4
13 0 20 10 20 8 0 20 7 28 16 11 14 13 14 21 0 10 -18 44 -21 53 -5 4 6 0 9
-10 7 -10 -2 -20 3 -22 10 -3 7 4 12 17 12 13 0 20 5 18 13 -7 19 -41 21 -55
2 -11 -17 -13 -17 -19 -2 -4 11 -18 17 -39 17 l-33 0 6 -46z m42 5 c0 -10 -4
-19 -10 -19 -5 0 -10 12 -10 26 0 14 4 23 10 19 6 -3 10 -15 10 -26z"/>
<path d="M2710 121 c0 -10 8 -22 18 -26 16 -7 15 -8 -3 -15 -19 -8 -19 -9 2
-9 30 -1 38 17 18 39 -15 17 -15 19 2 23 12 3 9 5 -9 6 -21 1 -28 -4 -28 -18z"/>
<path d="M2817 133 c-14 -13 -6 -25 8 -13 12 10 15 10 15 -3 0 -8 -9 -17 -21
-20 -23 -6 -17 -27 7 -27 9 0 12 5 8 13 -6 10 -4 10 7 0 7 -7 38 -13 70 -13
l56 0 -6 33 c-6 27 -12 32 -39 35 -31 3 -32 2 -26 -27 6 -27 4 -31 -15 -31
-17 0 -21 6 -21 30 0 22 -5 30 -18 30 -10 0 -22 -3 -25 -7z m123 -33 c0 -11
-4 -20 -10 -20 -5 0 -10 9 -10 20 0 11 5 20 10 20 6 0 10 -9 10 -20z"/>
<path d="M3332 123 c-19 -35 33 -76 53 -42 4 6 0 9 -10 7 -10 -2 -20 3 -22 10
-3 7 4 12 17 12 28 0 21 24 -8 28 -12 2 -25 -4 -30 -15z"/>
<path d="M3416 114 c4 -17 2 -29 -7 -35 -10 -6 -7 -9 12 -9 23 0 26 3 21 25
-2 15 0 25 7 25 6 0 11 5 11 10 0 6 -11 10 -25 10 -22 0 -25 -3 -19 -26z"/>
<path d="M3470 121 c0 -10 8 -22 18 -26 16 -7 15 -8 -3 -15 -19 -8 -19 -9 2
-9 30 -1 38 17 18 39 -15 17 -15 19 2 23 12 3 9 5 -9 6 -21 1 -28 -4 -28 -18z"/>
</g>
</svg>
